{"title":"Jodaeiye Nader az Simin 2011 DVDrip Persian Klam","uid":7000623,"size":1652143149,"categoryP":"video","categoryS":"movies","magnet":"?xt=urn:btih:5126886cb441cf9043f2fbc9a7453d123975c1ce&amp;dn=Jodaeiye+Nader+az+Simin+2011+DVDrip+Persian+Klam&amp;tr=udp%3A%2F%2Ftracker.openbittorrent.com%3A80&amp;tr=udp%3A%2F%2Fopen.demonii.com%3A1337&amp;tr=udp%3A%2F%2Ftracker.coppersurfer.tk%3A6969&amp;tr=udp%3A%2F%2Fexodus.desync.com%3A6969","seeders":2,"leechers":0,"uploader":"Klambake","files":-1,"time":1328041815,"description":"With: Leila Hatami, Peyman Moadi and Shahab Hosseini\n\nDe vrouw van Nader wil samen met hem en hun dochter Termeh Iran verlaten. Ze heeft alles al geregeld en staat erop om in het buitenland een nieuw leven te beginnen. Nader heeft echter zijn bedenkingen. Hij is bezorgd over zijn demente vader en hij wil hem niet aan zijn lot overlaten. Hij besluit daarom dat het gezin thuis moet blijven. Zijn vrouw Simin is het hier niet mee eens en weigert nog langer met hem samen te wonen. Ze vertrekt naar haar moeder en laat Nader en Termeh alleen achter. Nader kan maar moeilijk met deze nieuwe situatie omgaan en huurt een jonge vrouw in om op zijn zieke vader te passen. Hij weet alleen niet dat zijn nieuwe hulp niet alleen zwanger is, maar ook zonder de toestemming van haar man werkt... Nader komt al snel terecht in een web van leugens, manipulatie en confrontaties.\n\nA married couple are faced with a difficult decision - to improve the life of their child by moving to another country or to stay in Iran and look after a deteriorating parent who has Alzheimers. \n\n------------------------ Dutch Friends ------------------------\n---------------------------------------------------------------\n- Bezoek ook eens mijn vrienden op: &lt;a href=&quot; http://www.Film-Test.nl&quot; rel=&quot;nofollow&quot; target=&quot;_NEW&quot;&gt; http://www.Film-Test.nl&lt;/a&gt; --\n----- voor mijn Nederlandse Sync. ondertitels ---- en meer ----\n------- http://www.Film-Test.nl ---- voor Films en meer -------\n---------------------------------------------------------------\n\nGeneral:\n\nComplete name                    : Separation\\Jodaeiye Nader az Simin.avi\nFormat                           : AVI\nFormat/Info                      : Audio Video Interleave\nFile size                        : 1.54 GiB\nDuration                         : 1h 57mn\nOverall bit rate                 : 1 870 Kbps\n\nVideo:\n\nFormat                           : MPEG-4 Visual\nFormat profile                   : Simple@L3\nFormat settings, BVOP            : No\nFormat settings, QPel            : No\nFormat settings, GMC             : No warppoints\nFormat settings, Matrix          : Default (H.263)\nCodec ID                         : XVID\nCodec ID/Hint                    : XviD\nDuration                         : 1h 57mn\nBit rate                         : 1 411 Kbps\nWidth                            : 652 pixels\nHeight                           : 352 pixels\nDisplay aspect ratio             : 1.852\nFrame rate                       : 25.000 fps\nColor space                      : YUV\nChroma subsampling               : 4:2:0\nBit depth                        : 8 bits\nScan type                        : Progressive\nCompression mode                 : Lossy\nBits/(Pixel*Frame)               : 0.246\nStream size                      : 1.16 GiB (75%)\nWriting library                  : XviD 1.1.2 (UTC 2006-11-01)\n\nAudio:\n\nFormat                           : AC-3\nFormat/Info                      : Audio Coding 3\nMode extension                   : CM (complete main)\nCodec ID                         : 2000\nDuration                         : 1h 57mn\nBit rate mode                    : Constant\nBit rate                         : 448 Kbps\nChannel(s)                       : 3 channels\nChannel positions                : Front: L C R\nSampling rate                    : 48.0 KHz\nBit depth                        : 16 bits\nCompression mode                 : Lossy\nStream size                      : 377 MiB (24%)\nAlignment                        : Aligned on interleaves\nInterleave, duration             : 32 ms (0.80 video frame)\nInterleave, preload duration     : 64 ms","torrent":{"xt":"urn:btih:5126886cb441cf9043f2fbc9a7453d123975c1ce","amp;dn":"Jodaeiye+Nader+az+Simin+2011+DVDrip+Persian+Klam","amp;tr":["udp%3A%2F%2Ftracker.openbittorrent.com%3A80","udp%3A%2F%2Fopen.demonii.com%3A1337","udp%3A%2F%2Ftracker.coppersurfer.tk%3A6969","udp%3A%2F%2Fexodus.desync.com%3A6969"],"infoHash":"5126886cb441cf9043f2fbc9a7453d123975c1ce","infoHashBuffer":{"type":"Buffer","data":[81,38,136,108,180,65,207,144,67,242,251,201,167,69,61,18,57,117,193,206]},"announce":[],"urlList":[]}}